<svg width="2000" height="1136" viewBox="0 0 2000 1136" fill="none" xmlns="http://www.w3.org/2000/svg">
<path d="M341.692 257.747C349.32 258.16 358.173 257.378 365.527 258.954C368.03 262.716 364.17 263.336 365.703 268.607C369.312 269.882 383.706 272.225 388.87 273.414C424.59 281.647 460.26 302.333 479.849 333.987C496.528 360.932 501.233 405.583 493.325 435.973C478.64 492.4 446.637 532.759 397.549 563.42C351.261 592.335 282.425 598.586 230.588 585.953C203.376 577.189 189.311 569.92 173.686 545.392C148.968 506.407 154.294 455.693 192.755 427.497C224.508 404.218 269.228 404.263 306.243 413.082C308.707 397.326 313.465 380.255 317.11 364.626L335.242 284.966C320.548 284.935 308.534 285.187 293.874 287.112C281.18 288.777 267.538 291.65 254.915 292.35C257.993 278.135 258.225 274.058 274.159 270.96C287.972 268.276 301.049 266.904 315.13 266.479C321.222 266.296 333.583 267.281 338.892 265.768L341.692 257.747ZM324.352 421.801L324.534 422.646L325.004 421.775L326.016 423.258L325.037 421.44C327.146 424.725 327.877 423.289 330.299 425.362C346.604 439.319 350.117 454.076 351.905 474.518C346.8 477.512 341.781 481.387 336.103 481.564C330.355 478.771 330.892 474.314 329.974 468.265C328.271 457.025 325.642 450.548 319.443 441.359C310.092 470.525 304.965 503.523 296.053 533.003C293.437 541.649 280.291 544.144 274.473 542.043C274.437 539.891 279.463 521.931 280.478 517.835C287.513 489.471 293.191 459.803 300.819 431.675C267.64 422.164 238.093 421.563 209.619 444.258C195.277 455.178 189.233 467.255 187.1 484.949C183.836 512.037 190.546 528.993 207.114 549.984C213.564 554.645 221.328 560.549 228.008 564.587C261.173 582.967 323.549 566.926 355.325 550.026C403.963 523.425 437.86 487.042 454.05 433.323C479.093 350.23 432.76 310.355 359.2 288.525C357.619 295.562 355.521 303.83 353.401 310.674C342.358 346.29 336.587 386.904 324.352 421.801ZM460.498 335.462L457.532 330.963C454.671 328.397 451.381 325.243 448.232 323.173C451.426 327.457 456.03 334.149 459.899 337.493L460.744 336.587L460.498 335.462Z" fill="black"/>
<path d="M423.295 302.213C434.931 303.534 437.161 309.421 442.439 309.586C443.116 307.669 443.052 307.801 444.652 306.539C461.793 310.31 462.33 323.92 471.026 334.93C472.721 337.074 471.726 340.333 471.326 343.095L466.162 338.677C461.289 338.747 465.759 340.661 460.131 341.811C458.635 341.371 454.772 340.177 453.888 339.194C443.264 327.434 431.86 315.19 423.295 302.213ZM460.495 335.462L457.53 330.963C454.671 328.394 451.379 325.243 448.229 323.17C451.424 327.457 456.028 334.15 459.896 337.493L460.744 336.587L460.495 335.462Z" fill="black"/>
<path d="M457.529 330.962C462.382 330.602 460.212 334.513 463.907 332.636C462.746 328.072 450.357 314.812 446.01 311.978L445.277 309.756C453.599 307.448 466.835 322.899 464.654 332.991C463.121 334.81 462.726 334.787 460.494 335.462L457.529 330.962Z" fill="black"/>
<path d="M448.232 323.173C451.382 325.243 454.672 328.397 457.533 330.963L460.498 335.462L460.744 336.587L459.9 337.493C456.031 334.15 451.427 327.457 448.232 323.173Z" fill="black"/>
<path d="M207.114 549.983C213.564 554.645 221.328 560.549 228.008 564.586C219.866 570.582 204.692 560.238 207.114 549.983Z" fill="black"/>
<path d="M463.771 346.524L466.521 348.203C468.84 351.765 469.556 356.911 470.446 361.169C465.383 358.229 464.832 351.874 463.771 346.524Z" fill="black"/>
<path d="M1314.46 787.215C1304.74 778.793 1302.79 776.009 1300.67 762.998C1292.05 710.16 1439.35 661.72 1428.53 736.148C1423.69 737.024 1419.7 737.667 1415.02 739.156C1416.7 725.952 1417.17 722.337 1409.83 710.711C1400.45 705.607 1400.6 706.542 1390.02 707.241C1364.85 708.909 1301.99 744.522 1352.07 764.954C1367.87 771.397 1389.35 773.409 1405.57 780.172C1412.62 782.788 1423.74 790.178 1428.37 791.543C1429.38 793.208 1430.43 795.279 1431.8 796.532C1445.65 811.543 1458.37 829.051 1459.25 850.422C1462.32 924.749 1404.2 985.125 1330.49 989.49C1301.31 991.219 1259.66 988.186 1255.44 950.989C1253.09 895.249 1315.72 853.195 1356.75 826.479C1361.74 823.217 1383.42 812.458 1385.44 810.203C1384.22 808.421 1382.62 807.405 1380.43 807.055C1358.15 803.51 1341.69 800.634 1321.56 790.153C1304.09 815.139 1256.03 850.509 1224.61 856.804C1219.04 857.918 1198.28 855.1 1196.21 856.782C1185.06 865.834 1173.28 879.841 1162.78 890.014C1146.48 906.232 1129.07 919.072 1111.03 933.395C1100.08 942.088 1087.03 957.27 1071.13 956.498C1063.72 956.137 1071.4 935.244 1072.63 930.77C1076.81 915.549 1084.59 900.627 1089.32 885.484C1099.53 855.881 1107.42 825.133 1117.8 795.614C1123.52 780.771 1136.91 740.862 1137.07 726.489C1135.71 720.417 1134.6 718.783 1129.07 715.977C1128.32 711.548 1128.78 701.007 1128.36 699.972C1140.66 697.661 1144.95 698.201 1155.63 705.269C1161.2 715.568 1164.15 723.355 1161.25 735.571C1147.16 794.68 1123.45 850.716 1107.16 909.108C1105.18 916.265 1102.5 923.227 1099.18 929.878C1130.3 910.387 1144.64 897.642 1168.88 869.054C1174.62 862.286 1184.54 853.755 1191.02 846.256C1182.26 818.018 1186.86 776.543 1200.44 750.706C1207 734.953 1220.14 717.832 1235.27 709.536C1239.08 706.766 1249.22 703.302 1253.94 702.585C1265.39 700.851 1275.21 709.578 1275.84 721.024C1277.47 750.815 1250.33 768.42 1225.98 778.317C1222.03 779.917 1219.46 780.846 1216.05 783.356C1198.64 870.867 1231.87 848.631 1287.94 810.598C1296.67 804.683 1306.49 794.537 1314.46 787.215ZM1395.83 814.339C1350.2 838.536 1294.5 874.018 1276.05 925.239C1272.27 935.731 1271.83 950.611 1277.18 960.818C1284.26 974.313 1301.9 977.814 1315.94 979.89C1369.84 983.247 1433.46 942.793 1435.61 885.747C1436.91 851.063 1430.8 827.277 1395.83 814.339ZM1137.69 766.302C1133.7 770.387 1133.22 779.694 1130.4 785.659L1131.3 789.131C1132.57 788.98 1132.19 789.28 1132.69 788.726C1134.63 781.294 1136.78 773.921 1137.69 766.302ZM1226.74 729.76C1221.48 733.302 1219.02 740.569 1216.95 746.366C1217.94 744.964 1224.66 735.353 1225.34 734.861C1226.01 738.23 1224.43 740.728 1223.02 744.03C1226.15 742.197 1231.72 734.399 1233.77 730.929C1236.62 726.114 1236.62 726.184 1235.49 721.774L1233.15 721.598L1230.84 724.01C1229.21 728.274 1230.27 726.749 1226.74 729.76ZM1446.9 831.491C1445.23 826.253 1441.43 819.165 1437.54 815.243L1436.31 816.046C1438.53 818.248 1443.3 828.768 1445.25 832.341C1445.9 832.064 1446.45 831.93 1446.9 831.491ZM1262.02 713.109C1247.77 720.574 1223.6 753.087 1221.44 768.865C1223.5 769.531 1222.43 769.419 1224.78 768.829C1241.25 761.484 1256.99 754.083 1263.87 736.03C1266.11 730.149 1270.27 716.299 1262.02 713.109Z" fill="black"/>
<path d="M1230.84 724.01L1233.15 721.601L1235.48 721.777C1236.62 726.184 1236.62 726.114 1233.77 730.929C1231.72 734.399 1226.15 742.2 1223.02 744.03C1224.43 740.728 1226.01 738.229 1225.34 734.863L1226.74 729.762C1230.27 726.749 1229.21 728.274 1230.84 724.01Z" fill="black"/>
<path d="M1137.69 766.305C1136.78 773.924 1134.63 781.294 1132.69 788.728C1132.18 789.279 1132.57 788.98 1131.29 789.131L1130.4 785.659C1133.22 779.693 1133.7 770.387 1137.69 766.305Z" fill="black"/>
<path d="M1216.95 746.366C1219.02 740.569 1221.48 733.305 1226.74 729.76L1225.33 734.863C1224.65 735.353 1217.94 744.964 1216.95 746.366Z" fill="black"/>
<path d="M1137.07 726.492L1138.79 724.536C1143.58 726.405 1141 728.694 1145.1 729.514L1145.81 728.887L1146.98 733.294L1147.33 735.068C1149.32 739.564 1146.38 750.295 1145.78 756.05C1144.44 759.576 1144.51 763.247 1142.63 764.923L1137.67 765.038L1137.69 766.305C1133.7 770.387 1133.22 779.694 1130.4 785.662C1127.51 788.13 1125.43 799.456 1117.8 795.617C1123.52 780.774 1136.91 740.865 1137.07 726.492Z" fill="black"/>
<path d="M1137.67 765.038C1137.27 763.194 1145.9 738.344 1146.98 733.294L1147.33 735.065C1149.31 739.564 1146.38 750.295 1145.78 756.047C1144.44 759.576 1144.51 763.247 1142.63 764.923L1137.67 765.038Z" fill="black"/>
<path d="M1200.44 750.705C1206.99 734.955 1220.14 717.831 1235.27 709.535C1234.44 717.35 1231.53 714.681 1228.94 722.283C1229.87 723.321 1229.68 723.324 1230.84 724.009C1229.21 728.274 1230.26 726.749 1226.73 729.759C1221.48 733.302 1219.02 740.568 1216.95 746.366C1217.94 744.964 1224.65 735.353 1225.33 734.86C1226 738.229 1224.43 740.728 1223.02 744.029C1218.98 750.179 1216.79 758.397 1210.86 762.004C1204.11 762.398 1206.27 755.641 1200.44 750.705Z" fill="black"/>
<path d="M1145.81 728.886C1150.13 727.174 1151.09 726.276 1154.25 722.921C1159.79 740.725 1149.66 761.405 1146.08 778.439L1143.87 778.526C1140.93 774.371 1141.75 769.6 1142.63 764.922C1144.51 763.246 1144.44 759.575 1145.78 756.05C1146.38 750.294 1149.32 739.564 1147.33 735.067L1146.98 733.293L1145.81 728.886Z" fill="black"/>
<path d="M1147.33 735.068L1150.61 732.689C1152.4 737.194 1149.83 752.181 1147.13 756.364L1145.78 756.05C1146.38 750.295 1149.31 739.564 1147.33 735.068Z" fill="black"/>
<path d="M1137.67 765.038L1142.63 764.923C1141.75 769.601 1140.93 774.372 1143.87 778.527L1146.09 778.44C1145.87 787.276 1141.2 785.939 1132.69 788.728C1134.63 781.297 1136.78 773.924 1137.69 766.305L1137.67 765.038Z" fill="black"/>
<path d="M1415.39 798.896C1422.23 804.817 1427.4 811.58 1433.79 816.804L1436.3 816.046C1438.53 818.25 1443.3 828.768 1445.25 832.344C1445.9 832.064 1446.45 831.93 1446.9 831.491C1447.91 833.08 1448.86 834.7 1449.79 836.345C1453.28 842.666 1449.99 859.944 1443.68 863.318L1441.76 861.956C1437.96 854.113 1438.68 848.17 1438.98 839.658C1434.6 835.497 1419.49 816.292 1419.74 812.14L1422.64 813.192C1422.96 810.349 1417.23 801.977 1415.39 798.896Z" fill="black"/>
<path d="M1204.97 773.77C1205.4 774.189 1206.3 775.664 1206.69 776.254C1206.71 782.539 1204.81 787.62 1201.77 793.034L1199.86 790.009C1199.92 784.016 1201.89 778.851 1204.97 773.77Z" fill="black"/>
<path d="M1436.3 816.045L1437.54 815.242C1441.43 819.165 1445.23 826.252 1446.9 831.49C1446.45 831.93 1445.9 832.064 1445.25 832.344C1443.3 828.768 1438.53 818.25 1436.3 816.045Z" fill="black"/>
<path d="M1327.39 771.968C1332.88 772.911 1334.65 774.967 1336.95 779.682C1332.35 777.86 1328.41 777.094 1327.39 771.968Z" fill="black"/>
<path d="M987.023 404.615C961.955 392.782 932.805 382.83 905.882 372.572C860.181 355.157 869.6 313.131 900.044 285.36C928.285 259.601 972.995 258.438 1009.75 260.937C1020.63 261.549 1029.6 264.002 1039.72 268.106C1052.03 276.5 1056.51 278.459 1060.88 292.756C1054.39 295.598 1039.19 303.131 1033.21 301.133C1032.44 299.988 1031.47 298.735 1030.92 297.504C1016.8 279.434 1009.36 277.939 987.692 272.334C900.176 262.627 861.977 333.864 958.981 357.068C1014.49 370.351 1072.32 391.35 1065.79 457.809C1062.71 575.197 870.117 650.481 794.772 563.482C781.049 547.575 774.072 526.945 775.325 505.977C776.095 494.728 780.442 477.028 787.3 468.055C793.214 457.422 797.222 452.904 806.861 445.889C825.3 421.16 887.56 412.301 916.369 419.285C930.755 421.882 945.647 427.394 955.944 438.024C930.316 436.574 890.033 435.416 866.976 448.838C835.096 468.589 809.879 488.285 810.246 531.095C810.344 542.762 814.556 559.903 824.215 567.058C845.44 582.785 875.306 591.806 901.815 589.699C936.341 588.857 976.344 570.499 998.71 545.613C1016.89 525.381 1039.54 492.059 1036.96 463.634C1034.87 440.416 1029.14 435.578 1013.06 421.188C1004.93 416.596 996.542 409.945 987.023 404.615ZM846.92 447.338C840.545 447.666 833.211 454.795 828.388 458.972L829.141 460.24C832.481 459.714 843.49 450.111 846.92 447.338ZM1043.26 421.54C1041.39 419.243 1040.93 418.734 1038.57 416.943C1040.23 421.512 1041.11 422.752 1043.76 426.851C1045.43 429.582 1047.04 432.019 1048.28 434.974C1049.9 437.481 1049.29 437.372 1051.59 438.494C1051.74 435.374 1050.12 432.872 1048.73 429.949C1052.65 430.472 1052.26 432.209 1057.22 432.607C1057.99 429.478 1054.32 423.796 1052.56 420.214L1049.09 421.619C1047.57 419.988 1047.31 419.75 1045.47 418.477L1045.02 418.172L1043.26 421.54Z" fill="black"/>
<path d="M828.389 458.972C833.214 454.795 840.545 447.665 846.92 447.338C843.494 450.111 832.484 459.714 829.144 460.24L828.389 458.972Z" fill="black"/>
<path d="M806.861 445.891C825.3 421.162 887.561 412.304 916.369 419.285C930.755 421.881 945.647 427.393 955.944 438.023C930.316 436.574 890.033 435.418 866.976 448.838C859.499 445.989 858.61 447.066 850.31 449.143L848.545 447.296L847.681 446.851L846.92 447.338C840.545 447.668 833.211 454.795 828.389 458.975C826.954 457.814 824.828 458.351 822.825 458.524C819.6 456.191 821.267 455.253 819.689 450.396L816.316 452.402L815.169 451.423L818.945 446.121C813.149 446.219 813.25 446.619 807.949 450.256L806.861 445.891Z" fill="black"/>
<path d="M806.861 445.891C825.3 421.162 887.561 412.304 916.369 419.285C905.983 429.103 866.867 415.745 850.752 430.516C855.18 430.483 864.59 429.671 867.779 432.889C866.12 434.403 865.905 434.296 863.787 434.873C855.913 432.077 853.267 436.719 845.541 439.126L845.955 442.159C844.151 443.493 843.337 444.036 841.373 445.116C844.691 445.418 843.415 445.564 846.688 443.535C847.024 444.551 847.507 445.83 847.681 446.851L846.92 447.338C840.545 447.668 833.211 454.795 828.389 458.975C826.954 457.814 824.828 458.351 822.825 458.524C819.6 456.191 821.267 455.253 819.689 450.396L816.316 452.402L815.169 451.423L818.945 446.121C813.149 446.219 813.25 446.619 807.949 450.256L806.861 445.891Z" fill="black"/>
<path d="M839.365 436.663C842.431 435.309 844.836 433.577 847.675 433.991C847.007 437.497 845.899 437.791 845.544 439.125L845.955 442.159C844.151 443.49 843.337 444.036 841.373 445.116C844.691 445.418 843.415 445.561 846.691 443.535C847.024 444.551 847.51 445.827 847.684 446.851L846.92 447.338C840.545 447.665 833.211 454.794 828.389 458.972C826.956 457.814 824.828 458.351 822.825 458.524C819.603 456.191 821.267 455.253 819.689 450.393L816.316 452.399L815.172 451.423L818.948 446.121C824.559 444.277 825.432 438.546 839.365 436.663Z" fill="black"/>
<path d="M839.364 436.663C842.43 435.309 844.835 433.577 847.672 433.991C847.006 437.497 845.896 437.791 845.54 439.125L845.954 442.159C844.15 443.49 843.336 444.036 841.373 445.116C831.205 446.093 830.514 450.351 822.352 452.192C825.199 448.219 833.591 443.255 838.612 437.533L839.364 436.663Z" fill="black"/>
<path d="M845.544 439.126C853.267 436.72 855.913 432.078 863.787 434.873C854.506 439.227 858.607 441.731 848.548 447.293L847.684 446.851C847.51 445.827 847.023 444.551 846.691 443.533C843.415 445.561 844.691 445.419 841.373 445.116C843.337 444.036 844.151 443.491 845.955 442.159L845.544 439.126Z" fill="black"/>
<path d="M1009.75 260.937C1020.64 261.548 1029.6 264.002 1039.72 268.105C1052.04 276.5 1056.51 278.458 1060.88 292.755C1054.39 295.598 1039.19 303.13 1033.22 301.132C1032.44 299.988 1031.47 298.734 1030.92 297.503C1016.8 279.433 1009.36 277.938 987.695 272.334C994.92 267.73 1003.55 268.499 1011.4 271.247L1014.77 271.734L1015.65 270.872C1012.24 269.406 1009.07 268.35 1006.31 265.927C1008.6 264.186 1008.93 264.739 1012.24 264.646L1009.75 260.937Z" fill="black"/>
<path d="M1039.72 268.105C1052.03 276.5 1056.51 278.458 1060.88 292.755C1054.4 295.598 1039.19 303.13 1033.22 301.133C1032.44 299.988 1031.47 298.735 1030.92 297.504C1033.21 292.719 1031.1 291.784 1029.52 286.532C1030.59 284.649 1030.89 284.507 1032.5 283.169L1032.97 282.789L1033.53 276.932L1035.77 273.238L1034.77 270.611C1035.52 270.039 1038.68 268.606 1039.72 268.105Z" fill="black"/>
<path d="M987.695 272.335C994.92 267.731 1003.55 268.5 1011.4 271.248L1009.98 273.025C1012.37 274.079 1012.29 274.209 1014.81 274.482C1018.99 274.935 1021.56 280.444 1025.73 280.71L1028.88 278.161L1028.58 277.845C1030.87 277.147 1031.12 277.144 1033.52 276.932L1032.97 282.789L1032.5 283.172C1030.89 284.507 1030.59 284.649 1029.52 286.532C1031.1 291.784 1033.21 292.719 1030.92 297.503C1016.8 279.434 1009.36 277.939 987.695 272.335Z" fill="black"/>
<path d="M1009.75 260.937C1020.63 261.548 1029.6 264.002 1039.72 268.105C1038.68 268.606 1035.52 270.039 1034.77 270.61C1029.13 269.874 1017.64 266.495 1012.24 264.646L1009.75 260.937Z" fill="black"/>
<path d="M787.301 468.055C793.214 457.422 797.222 452.903 806.862 445.889L807.953 450.254C803.278 455.329 793.642 467.803 787.301 468.055Z" fill="black"/>
<path d="M987.023 404.615C995.505 401.607 1011.54 411.299 1013.06 421.187C1004.93 416.596 996.545 409.945 987.023 404.615Z" fill="black"/>
<path d="M1023.21 411.493C1020.39 407.679 1018.85 405.824 1016.98 401.493C1018.44 400.407 1018.49 400.81 1020.77 400.841C1021.4 397.712 1020.55 397.738 1018.43 394.352L1018.93 393.129C1027.09 390.384 1035.53 396.255 1040.31 402.511C1045.53 408.362 1049 413.132 1052.56 420.211L1049.09 421.619C1047.57 419.988 1047.31 419.75 1045.47 418.477L1045.02 418.172L1043.26 421.54C1041.39 419.243 1040.93 418.734 1038.57 416.943C1040.23 421.512 1041.11 422.752 1043.77 426.851C1045.43 429.582 1047.04 432.019 1048.28 434.974L1045.17 435.279C1043.17 433.958 1041.77 433.043 1039.47 432.341C1040.54 434.579 1041.27 436.376 1042.15 438.69L1041.52 439.798C1037.6 437.705 1031.89 430.142 1030.01 426.026C1029.36 422.763 1027.61 421.717 1025.16 418.877C1017.18 411.655 1012.12 407.956 1005.62 399.265C1012.18 402.749 1017.33 406.979 1023.21 411.493Z" fill="black"/>
<path d="M1025.16 418.876L1025.76 414.931C1029.78 415.135 1034.36 422.463 1036.92 425.818C1038.17 424.788 1037.84 424.589 1038.28 422.614L1043.77 426.85C1045.43 429.581 1047.04 432.018 1048.28 434.973L1045.17 435.278C1043.17 433.957 1041.77 433.042 1039.47 432.34C1040.54 434.578 1041.27 436.375 1042.15 438.689L1041.52 439.797C1037.6 437.704 1031.89 430.141 1030 426.025C1029.36 422.762 1027.62 421.716 1025.16 418.876Z" fill="black"/>
<path d="M1030.01 426.025C1034.68 426.859 1036.01 428.614 1039.47 432.343C1040.54 434.579 1041.27 436.375 1042.15 438.689L1041.52 439.797C1037.61 437.704 1031.89 430.141 1030.01 426.025Z" fill="black"/>
<path d="M1040.31 402.508C1045.53 408.361 1049 413.132 1052.57 420.211L1049.09 421.618C1047.57 419.987 1047.32 419.749 1045.47 418.476L1045.02 418.171C1042.14 414.285 1038.9 407.211 1040.31 402.508Z" fill="black"/>
<path d="M1045.02 418.174L1045.47 418.476C1047.31 419.752 1047.57 419.99 1049.09 421.618L1052.56 420.214C1054.32 423.795 1057.99 429.478 1057.22 432.609C1052.25 432.209 1052.65 430.471 1048.73 429.951C1046.97 428.462 1044.54 423.753 1043.26 421.54L1045.02 418.174Z" fill="black"/>
<path d="M1043.77 426.85C1041.11 422.754 1040.23 421.512 1038.57 416.942C1040.93 418.733 1041.39 419.242 1043.26 421.54C1044.54 423.753 1046.98 428.462 1048.73 429.948C1050.12 432.872 1051.75 435.373 1051.59 438.496C1049.29 437.371 1049.9 437.48 1048.28 434.976C1047.04 432.018 1045.43 429.581 1043.77 426.85Z" fill="black"/>
<path d="M492.398 723.629C469.547 717.149 444.188 697.054 444.188 671.692C444.188 658.95 450.616 648.651 459.43 639.854C478.781 620.542 506.065 611.84 532.014 605.706C538.826 604.187 561.502 604.075 569.248 603.93L567.866 605.779C570.042 608.7 571.984 609.8 574.926 611.837L574.554 613.857C576.336 616.138 581.377 617.735 585.656 622.931L585.217 625.447C561.377 616.588 542.951 616.812 518.14 622.257C511.735 623.368 504.666 624.548 498.677 626.84C483.323 632.713 469.572 649.854 472.023 667.795C476.258 698.822 537.402 697.711 560.582 706.131C589.402 716.595 615.06 731.495 629.998 759.117C642.448 784.439 637.22 815.511 629.161 841.312C626.423 850.072 612.963 876.371 607.167 882.686C604.003 886.575 599.712 892.199 596.149 895.487C579.595 916.738 527.29 938.913 500.968 944.657C449.673 955.849 361.852 947.726 347.88 884.606C343.181 863.385 348.543 828.332 360.14 810.321C374.929 787.352 404.77 771.574 430.865 765.65C445.505 762.013 505.231 757.024 508.968 777.156C505.114 780.298 498.982 778.974 494.193 778.77C450.288 776.898 400.356 802.934 379.83 842.63C367.083 868.274 374.694 902.328 401.234 915.672C470.386 950.438 561.158 924.847 597.93 855.624C630.554 794.207 592.087 767.447 540.277 742.916C532.744 741.817 499.142 727.826 492.398 723.629Z" fill="black"/>
<path d="M492.396 723.627C501.776 719.254 544.265 739.721 552.892 746C548.738 744.609 544.078 742.253 540.276 742.916C532.746 741.817 499.141 727.827 492.396 723.627Z" fill="black"/>
<path d="M596.152 895.484L594.865 892.001C595.027 887.101 600.325 881.175 605.271 880.683L607.167 882.686C604.004 886.572 599.713 892.199 596.152 895.484Z" fill="black"/>
<path d="M401.166 799.15C398.551 801.797 397.211 802.335 394.005 804.002L393.409 803.398L397.946 795.852C395.888 797.217 395.655 797.349 393.37 798.28L392.422 797.441C394.64 794.411 394.472 793.286 395.558 790.093C398.609 781.109 424.539 771.663 431.658 774.424L431.2 777.082C429.938 778.588 428.637 779.939 427.734 781.66C430.111 784.388 429.448 783.059 430.011 786.906C427.697 792.326 415.278 798.479 409.879 801.56L406.386 803.521C403.213 802.939 403.591 802.262 401.166 799.15Z" fill="black"/>
<path d="M427.734 781.661C423.558 782.769 406.836 790.634 401.639 792.906L401.91 792.612L401.723 792.12C412.061 785.659 419.379 780.429 431.202 777.083C429.941 778.591 428.64 779.943 427.734 781.661Z" fill="black"/>
<path d="M401.166 799.151C404.044 797.357 407.918 795.933 411.409 794.033C410.109 797.536 408.895 798.703 409.879 801.56L406.386 803.521C403.214 802.942 403.594 802.262 401.166 799.151Z" fill="black"/>
<path d="M600.926 746.212C608.207 747.849 607.863 752.966 614.414 757.337C614.943 754.757 614.341 755.75 615.846 754.018C618.713 755.874 633.091 778.803 632.45 782.5C629.44 784.581 628.68 783.918 624.512 784.103C623.396 787.416 625.81 794.758 626.028 799.411C623.944 797.85 624.523 798.043 623.412 795.166C623.432 794.682 623.443 794.198 623.449 793.711C623.463 784.17 613.052 771.084 606.635 764.567C605.561 765.552 604.791 766.403 603.807 767.469C601.096 764.816 593.331 757.401 593.642 753.926C596.87 753.999 596.478 754.469 599.407 756.688C600.968 754.572 601.625 753.574 603.91 752.267C601.804 749.863 601.84 749.382 600.926 746.212Z" fill="black"/>
<path d="M725.306 623.272C733.661 622.466 739.266 621.974 747.639 622.102C746.637 626.025 739.155 650.444 737.608 652.951C736.052 658.435 731.496 673.539 730.866 678.32C726.377 681.099 726.103 687.716 728.397 692.031C721.252 697.081 685.264 835.721 686.906 843.589C705.641 852.931 771.977 759.807 784.643 743.934C788.419 739.203 795.571 714.726 798.469 707.014C801.177 707.235 820.956 706.06 819.946 710.601C816.257 727.166 806.962 744.544 801.278 760.045C795.823 774.925 777.932 827.735 782.802 840.533L784.452 841.252C806.217 838.799 857.278 781.447 867.356 760.96C868.908 757.807 879.11 709.071 880.651 702.445C871.073 704.241 850.746 709.054 843.675 701.41C842.223 695.137 846.005 682.288 852.296 679.907C852.721 682.266 852.184 684.328 851.795 686.714C858.257 693.516 879.675 688.578 885.236 683.539L892.31 653.964C893.473 648.991 895.585 636.529 900.005 634.486C905.023 632.17 924.791 625.219 928.064 630.606C927.616 635.978 924.517 644.758 922.822 650.183L916.794 670.033C936.732 661.627 1010.63 625.656 1026.64 644.238L1026.53 646.14C1014.64 647.469 1006.74 646.445 995.364 651.014C967.555 662.19 936.967 675.08 910.833 689.563C903.557 708.43 863.143 838.555 867.885 849.367C864.394 852.316 865.11 856.429 861.983 860.9C858.153 858.984 855.465 857.971 852.679 854.711C849.834 846.306 861.149 794.553 864.005 784.181C844.542 811.425 820.704 833.382 791.759 850.346C786.869 855.29 761.915 857.405 759.686 848.726C755.213 831.286 773.113 781.996 777.988 767.452C753.683 794.274 732.85 830.424 701.641 851.406C690.106 859.163 680.296 860.637 669.37 851.384C671.538 834.47 676.455 817.785 679.675 801.132C686.03 768.249 691.742 739.357 701.941 707.395C677.745 717.154 651.521 729.55 625.873 720.744C617.415 706.13 622.385 702.814 634.226 694.054C633.787 697.263 632.097 707.087 636.539 707.33C656.727 708.433 687.174 694.946 706.542 688.796C708.864 678.374 711.708 669.386 714.875 659.235L717.381 652.212C719.199 642.581 722.438 632.696 725.306 623.272ZM793.569 749.589C794.939 745.37 797.076 740.655 795.846 736.564C793.694 741.069 791.479 744.62 793.569 749.589Z" fill="black"/>
<path d="M892.311 653.961C893.474 648.992 895.586 636.526 900.006 634.487C905.024 632.17 924.792 625.217 928.064 630.606C927.62 635.975 924.52 644.755 922.822 650.183L920.562 647.537L918.215 645.088L916.962 645.6L916.148 649.736C910.753 646.409 911.835 644.067 907.407 642.886C903.357 644.722 899.762 653.026 897.245 657.402C894.73 657.008 894.173 655.936 892.311 653.961Z" fill="black"/>
<path d="M725.309 623.272C733.662 622.466 739.27 621.974 747.642 622.102C746.638 626.025 739.158 650.444 737.611 652.951L736.529 651.823C737.561 648.25 737.701 646.873 738.062 643.303C734.834 639.654 736.263 640.301 732.389 639.341C724.47 640.942 723.365 650.295 717.385 652.212C719.203 642.581 722.439 632.696 725.309 623.272Z" fill="black"/>
<path d="M717.382 652.213C723.363 650.296 724.47 640.942 732.389 639.342C736.263 640.302 734.831 639.655 738.059 643.304C735.914 647.705 728.218 669.6 725.911 670.559L723.147 666.88L722.658 667.789C721.933 669.113 721.209 670.154 720.356 671.388C716.549 670.215 715.438 662.912 714.873 659.236L717.382 652.213Z" fill="black"/>
<path d="M897.241 657.406C899.762 653.027 903.356 644.722 907.406 642.89C911.831 644.068 910.752 646.41 916.145 649.736L916.959 645.604L918.215 645.089L920.559 647.537C919.227 652.246 916.271 665.011 912.833 667.666L913.952 666.997L912.894 667.831C911.451 663.945 911.924 663.103 909.006 661.206C902.08 664.373 909.613 667.921 895.994 664.6C895.213 662.417 896.458 660.098 897.241 657.406Z" fill="black"/>
<path d="M892.311 653.961C894.173 655.936 894.73 657.008 897.242 657.403C896.459 660.097 895.214 662.414 895.994 664.599C894.316 669.526 892.42 678.511 889.908 681.905C888.33 682.588 886.931 683.332 885.236 683.539L892.311 653.961Z" fill="black"/>
<path d="M896.102 700.512L897.696 702.241C898.767 709.866 898.208 717.739 891.542 722.585L891.702 724.141C890.602 718.839 894.227 705.677 896.102 700.512Z" fill="black"/>
<path d="M795.849 736.562C797.077 740.652 794.94 745.37 793.569 749.589C791.48 744.617 793.695 741.069 795.849 736.562Z" fill="black"/>
<path d="M659.269 286.879C669.876 285.712 683.314 284.755 685.275 298.533C690.797 337.364 664.567 390.244 646.441 423.202C661.3 407.703 680.218 391.092 700.24 382.627C711.98 377.667 725.118 380.106 729.571 393.433C726.959 396.047 726.729 397.144 723.566 397.938L723.096 394.024L721.929 393.347C720.307 400.222 719.359 405.574 719.913 412.662L717.82 413.904L717.949 416.235C722.478 419.466 728.349 414.962 731.532 421.226C729.697 427.891 727.882 435.04 725.647 441.543C737.599 435.992 753.708 427.79 764.125 419.195C768.346 415.714 776.771 394.81 779.521 393.053C786.413 397.933 776.556 419.223 772.486 424.743C760.128 441.515 736.047 444.492 719.885 453.387C712.265 467.867 698.072 485.903 683.963 494.328C663.541 510.926 638.595 522.202 611.826 521.032C598.861 520.467 594.433 511.572 599.641 500.055C599.818 499.843 599.999 499.636 600.167 499.417C603.157 495.531 612.587 441.686 611.759 435.768C611.778 435.457 611.795 435.147 611.812 434.836C618.514 396.296 625.837 356.379 637.778 319.16C642.134 305.581 648.858 295.544 659.269 286.879ZM623.941 473.077L630.743 467.973C661.051 451.535 668.517 454.358 698.836 447.595C707.121 434.646 713.236 420.891 711.054 404.891C710.371 399.88 706.24 395.969 701.104 395.887C678.917 401.523 642.833 430.86 630.05 450.432C625.868 456.831 625.216 465.348 623.941 473.077ZM632.763 430.205C653.829 399.108 667.269 359.242 675.102 322.627C676.743 314.949 681.068 299.087 675.362 292.825L671.974 292.229C658.005 305.282 647.208 358.858 642.545 379.052L629.969 431.579L630.439 432.95C632.522 431.341 631.904 432.323 632.763 430.205ZM623.034 484.854C622.106 489.708 617.211 509.773 620.486 513.13C650.713 503.038 666.85 494.062 687.233 468.661C689.129 466.297 690.942 463.698 691.941 460.832L691.09 460.281C663.857 462.959 644.78 468.051 623.034 484.854Z" fill="black"/>
<path d="M683.967 494.33C684.165 488.754 696.454 477.97 701.153 473.681C707.572 467.827 712.246 454.822 719.888 453.39C712.269 467.867 698.073 485.903 683.967 494.33Z" fill="black"/>
<path d="M1777.88 641.821C1765.87 621.969 1753.77 599.112 1742.16 578.731L1667.68 448.751L1594.44 321.346C1589.67 312.898 1567.15 277.207 1568.27 270.407L1570.09 270.136C1580 276.452 1621 350.515 1629.64 364.894C1664.44 422.844 1701.1 480.128 1735.46 538.375C1749.91 562.869 1766.28 585.958 1781.62 609.853C1784.2 613.866 1785.92 620.572 1788.79 623.502C1791.85 622.71 1792.36 620.813 1794.71 617.744C1793.95 622.455 1794.32 627.587 1796.05 632.047C1795.68 641.018 1827 669.334 1812.34 684.214C1799.17 689.452 1787.6 657.506 1781.03 647.761C1738.7 690.934 1685.34 709.323 1639.14 747.217C1634.1 751.352 1627.76 755.186 1624.72 761.157L1625.06 762.419L1626.48 763.222C1644.07 760.189 1685.89 769.979 1702.18 780.97C1746.14 810.248 1709.11 849.521 1671.15 855.419C1643.88 859.661 1605.96 844.502 1600.53 815.173C1599.37 805.139 1599.33 799.971 1601.6 790.161C1603.86 781.529 1606.45 775.278 1611.11 767.676L1581.2 767.88C1578.57 764.125 1571.73 765.289 1566.95 765.029C1582.2 763.63 1597.94 762.351 1613.24 763.163C1637.73 728.954 1686.9 708.509 1720 685.478C1732.79 676.609 1745.36 667.431 1757.72 657.957C1764.65 652.551 1770.64 646.703 1777.88 641.821ZM1700.25 784.934C1675.33 768.034 1649.37 767.676 1620.67 767.628C1614.22 786.568 1607.24 802.422 1616.34 822.115C1628.56 848.536 1664.93 853.987 1689.19 842.775C1708.51 833.855 1717.9 799.031 1700.25 784.934ZM1784.86 631.924C1784.58 627.548 1781.05 620.391 1776.96 618.605C1778.38 623.351 1779.02 626.51 1781.92 630.5C1782.69 630.9 1784.1 631.683 1784.86 631.924Z" fill="black"/>
<path d="M1626.48 763.221C1644.07 760.188 1685.89 769.981 1702.18 780.969L1700.25 784.937C1675.33 768.034 1649.37 767.675 1620.67 767.628C1624.16 767.113 1626.32 767.538 1628.08 765.392L1626.48 763.221Z" fill="black"/>
<path d="M1601.61 790.161C1607.37 794.769 1609.87 808.267 1606.17 814.473C1604.54 814.731 1602.09 815.212 1600.53 815.176C1599.37 805.139 1599.33 799.974 1601.61 790.161Z" fill="black"/>
<path d="M1776.96 618.605C1781.05 620.391 1784.58 627.548 1784.86 631.924C1784.1 631.683 1782.69 630.9 1781.92 630.5C1779.02 626.51 1778.38 623.351 1776.96 618.605Z" fill="black"/>
<path d="M1231.09 385.887C1236.74 384.522 1244.93 381.883 1250.24 383.998L1251.51 385.977C1246.74 396.953 1238.55 407.34 1232.31 417.58C1217.97 441.089 1159.47 535.685 1166.43 556.603C1166.92 558.078 1167.91 559.189 1168.98 560.272C1184.21 565.697 1226.45 518.038 1233.44 505.321C1233.22 502.859 1232.08 492.19 1232.46 490.273C1237.18 465.788 1255.24 431.431 1270.69 412.589C1282.88 398.526 1299.45 388.173 1318.31 386.478C1326.09 385.778 1338.55 386.626 1341.76 395.132L1340.22 397.491C1337.81 397.359 1326.1 396.556 1324.92 396.906C1315.16 399.793 1301.72 410.591 1293.33 416.45C1273.85 433.574 1261.31 452.245 1256.27 478.429C1254.3 483.06 1261.2 492.38 1265.76 491.208C1289.25 485.153 1309.35 464.945 1326.52 448.77C1338.89 437.116 1334.79 398.103 1357.25 408.193L1358.53 409.861C1355.86 424.063 1325.6 497.923 1328.71 508.925C1338.8 508.388 1362.57 476.871 1370.76 470.326C1386.58 457.659 1383.14 441.576 1390.06 430.569C1392.56 422.105 1396.03 413.425 1399.18 405.138C1401.11 398.758 1402.04 394.505 1403.29 388.067C1412.74 388.8 1417.65 388.389 1427.17 387.614C1425.49 393.137 1423.25 401.399 1420.9 406.436C1418.65 412.505 1415.62 421.458 1412.65 426.957C1407.46 438.345 1392.08 492.223 1393.55 501.924L1395.73 502.75C1408.38 500.285 1422.3 485.214 1430.45 475.432C1444.19 458.955 1465.79 441.8 1472.63 421.565C1474.29 415.924 1475.73 409.298 1477.13 403.518L1480.02 391.413C1486.77 389.564 1492.55 386.897 1498.72 390.053C1507.19 401.204 1488.95 426.089 1489.82 439.385C1485.12 443.09 1483.19 450.603 1485.3 456.179C1474.5 474.548 1476.08 499.101 1466.03 515.923C1462.35 518.945 1451.6 519.72 1448.26 516.969C1443.64 507.599 1463.02 455.312 1466.92 442.793C1447.88 469.685 1429.6 490.514 1402.88 510.321C1361.61 540.918 1374.03 487.968 1381.2 467.215C1371.23 482.917 1341.95 523.287 1318.95 519.451C1309.88 517.935 1311.4 507.442 1313.31 500.545C1317.38 485.824 1322.75 471.076 1327.72 456.512C1307.43 472.128 1267.14 523.049 1238.63 509.75C1225.77 527.246 1195.25 565.333 1173.94 570.585C1168.95 571.813 1162.91 571.486 1158.51 568.601C1154.42 565.91 1152.38 561.623 1151.38 556.967C1143.88 522.081 1207.25 421.957 1226.9 391.349C1229.43 390.277 1229.67 390.048 1231.46 387.955L1231.09 385.887ZM1279.31 416.906L1280.29 417.354C1283.87 416.707 1284.03 415.742 1287.14 413.157C1289.39 410.767 1290.09 410.087 1291.69 407.242L1291.27 407.328L1290.29 406.676C1287.73 408.61 1281.35 414.497 1279.31 416.906ZM1213.06 428.179L1216.31 429.201C1220.88 425.672 1229.18 407.298 1224.81 401.62C1221.64 408.806 1209.38 420.723 1213.06 428.179Z" fill="black"/>
<path d="M1279.31 416.906C1281.35 414.497 1287.73 408.607 1290.29 406.677L1291.27 407.329L1291.68 407.242C1290.09 410.088 1289.39 410.768 1287.14 413.157C1284.02 415.742 1283.87 416.708 1280.29 417.354L1279.31 416.906Z" fill="black"/>
<path d="M1270.69 412.589C1282.87 398.526 1299.45 388.171 1318.3 386.478C1326.09 385.778 1338.54 386.626 1341.75 395.132L1340.21 397.491C1337.81 397.359 1326.1 396.556 1324.92 396.906C1315.16 399.794 1301.71 410.591 1293.33 416.45L1291.78 416.092C1294.07 411.148 1303.88 408.809 1305.56 402.961C1301.38 401.976 1292.4 411.07 1288.7 413.817L1287.14 413.157C1289.39 410.767 1290.09 410.088 1291.68 407.242L1291.27 407.329L1290.29 406.677C1287.73 408.607 1281.34 414.497 1279.3 416.906L1279.18 419.15L1277.55 420.317L1275.15 419.598C1272.2 416.898 1272.02 416.322 1270.69 412.589Z" fill="black"/>
<path d="M1403.29 388.068C1412.74 388.801 1417.64 388.389 1427.17 387.614C1425.49 393.138 1423.24 401.4 1420.89 406.437C1418.64 412.505 1415.61 421.459 1412.65 426.957L1411.83 421.498L1410.46 420.544C1401.44 429.657 1397.02 425.567 1390.81 431.14L1390.06 430.57C1392.56 422.106 1396.03 413.426 1399.18 405.138C1401.11 398.759 1402.04 394.506 1403.29 388.068Z" fill="black"/>
<path d="M1403.29 388.068C1412.74 388.801 1417.64 388.389 1427.17 387.614C1425.49 393.138 1423.24 401.4 1420.9 406.437L1418.88 403.003C1410.72 400.533 1411.93 409.33 1399.18 405.138C1401.11 398.759 1402.04 394.506 1403.29 388.068Z" fill="black"/>
<path d="M1418.88 403L1420.9 406.436C1418.64 412.505 1415.62 421.459 1412.65 426.957L1411.83 421.498L1410.46 420.544C1409.63 413.638 1415.52 411.053 1418.88 403Z" fill="black"/>
<path d="M1477.13 403.518L1477.89 403.87C1482.78 406.137 1485.59 405.711 1488.17 408.979C1487.27 412.734 1484.18 418.714 1482.58 423.47L1482.91 423.949C1483.73 425.174 1484.28 425.67 1484.18 427.099C1480.67 427.897 1474.91 424.29 1472.63 421.562C1474.29 415.924 1475.73 409.298 1477.13 403.518Z" fill="black"/>
<path d="M1224.8 401.621C1229.18 407.295 1220.88 425.673 1216.3 429.201L1213.06 428.18C1209.37 420.723 1221.64 408.806 1224.8 401.621Z" fill="black"/>
<path d="M1075.65 632.92C1083.59 618.196 1104.87 612.29 1107.83 632.343C1112.3 662.582 1100.87 696.362 1087.79 722.501L1081.5 734.981L1091.62 724.969C1100.48 716.533 1116.98 704.135 1128.36 699.974C1128.78 701.007 1128.32 711.547 1129.07 715.976C1102.58 721.838 1073.56 751.483 1059.47 773.683C1057.21 777.228 1055.4 781.047 1054.11 785.048C1050.86 794.842 1047.64 812.598 1044.78 823.541C1042.15 833.552 1037.05 851.244 1035.86 860.674C1029.42 861.958 1025.77 862.621 1019.1 863.08C1019.67 845.609 1024.73 825.349 1029.56 808.415C1008.89 830.788 960.448 880.201 926.85 853.36C918.229 846.476 918.193 834.543 913.628 826.255C913.295 823.121 912.915 821.857 912.02 818.821C912.699 817.257 915.312 799.805 915.606 797.013C917.832 775.904 929.818 740.826 944.453 725.277C949.136 718.259 956.467 712.247 963.572 707.91C975.315 697.884 990.839 695.761 1002.7 707.356C1012.72 717.151 1013 727.753 1013.03 740.848L1003.72 748.092C1001.9 730.971 1002.9 722.812 986.025 714.653C963.234 726.312 951.55 753.21 943.855 777.955C935.754 804.005 935.533 870.461 981.298 838.13C996.8 827.243 1029.54 806.476 1033.15 786.736C1039.23 753.543 1050.89 720.951 1058.2 688.256C1063.29 668.231 1066.77 651.622 1075.65 632.92ZM969.821 714.583C962.137 714.163 955.284 722.465 948.677 726.648C947.208 727.577 944.629 734.158 943.827 736.15C942.059 743.836 941.482 743.212 947.958 745.865C947.628 745.731 949.074 750.289 949.815 751.324C951.482 750.283 953.524 745.739 953.555 744.085C953.74 733.741 970.747 723.008 969.821 714.583ZM1069.03 689.826C1075.12 686.821 1081.02 660.254 1081.71 653.286L1080.95 653.443C1077.8 661.927 1074.99 670.531 1072.51 679.238L1069.03 689.826ZM1062.16 757.015C1073.45 739.175 1113.52 645.48 1098.06 630.41C1092.18 641.28 1059.38 750.16 1061.22 756.853L1062.16 757.015Z" fill="black"/>
<path d="M943.826 736.15C944.629 734.158 947.208 727.577 948.676 726.648C955.283 722.465 962.137 714.163 969.82 714.583C970.746 723.008 953.739 733.744 953.555 744.085C953.527 745.739 951.482 750.283 949.815 751.324C949.074 750.288 947.627 745.73 947.958 745.865C941.482 743.212 942.058 743.836 943.826 736.15Z" fill="black"/>
<path d="M1072.51 679.236C1074.99 670.531 1077.8 661.927 1080.95 653.441L1081.72 653.287C1081.02 660.254 1075.13 686.821 1069.03 689.827L1072.51 679.236Z" fill="black"/>
<path d="M1075.65 632.92C1077.97 637.517 1077.29 647.537 1073.54 650.83C1066.79 656.759 1061.28 678.989 1061.2 687.333L1062.2 687.193L1064.18 682.747C1064.41 688.066 1063.25 691.471 1063.59 695.943C1062.74 692.56 1060.59 690.758 1058.2 688.257C1063.29 668.228 1066.77 651.622 1075.65 632.92Z" fill="black"/>
<path d="M963.573 707.91C966.675 708.159 966.803 708.22 969.503 706.866L968.767 707.529C968.395 709.194 967.441 711.444 968.333 712.896C969.119 714.163 968.725 713.713 969.822 714.583C962.138 714.163 955.282 722.465 948.675 726.648C947.206 727.577 944.63 734.158 943.824 736.15C943.352 732.742 944.577 730.627 945.861 727.373L944.454 725.277C949.133 718.26 956.468 712.247 963.573 707.91Z" fill="black"/>
<path d="M1064.18 682.748C1063.36 678.884 1067.01 669.381 1070.41 667.963L1069.26 669.228L1070.18 670.338L1069.31 673.668C1070.02 676.133 1070.44 676.458 1072.02 678.587L1072.51 679.236L1069.02 689.827C1068.33 693.766 1068.18 694.222 1065.53 697.197L1064.01 697.376L1063.58 695.943C1063.24 691.472 1064.41 688.067 1064.18 682.748Z" fill="black"/>
<path d="M968.769 707.529C973.751 707.205 972.657 706.502 975.963 708.953C977.015 712.714 977.11 711.181 975.622 714.72L973.051 716.007C972.042 715.576 970.766 715.078 969.821 714.583C968.727 713.713 969.118 714.163 968.332 712.896C967.44 711.444 968.397 709.194 968.769 707.529Z" fill="black"/>
<path d="M1135.46 310.203C1138.01 301.557 1145.34 262.791 1165.13 286.577C1168.96 291.191 1158.15 313.245 1156.15 320.139L1154.09 327.923L1154.73 328.872C1161.25 327.834 1173.75 322.853 1181.43 320.861C1214.41 312.302 1252.77 297.808 1286.88 300.922C1293.6 301.535 1301.67 306.23 1307.21 309.378C1306.4 310.2 1258.97 315.105 1243.04 320.992C1219.17 329.812 1169.03 340.984 1144.88 354.199C1132.45 386.601 1107.87 465.197 1101.38 496.823C1129.81 468.975 1163.51 427.575 1185.66 395.118C1177.44 392.485 1175.61 390.655 1169.98 384.004C1166.13 364.132 1177.17 343.455 1199.86 349.018C1218.06 353.478 1198.55 385.129 1200.49 391.03L1203.47 391.634C1204.01 393.495 1204.12 393.408 1203.61 395.249C1202.23 395.406 1195.47 396.229 1194.73 397.286C1175.44 425.068 1156.59 454.705 1132.03 478.194C1123.82 486.04 1102.29 511.734 1091.42 507.954C1083.11 501.619 1088.63 484.523 1090.66 475.931C1097.48 447.108 1104.1 418.28 1112.9 389.975C1115.96 380.126 1118.38 369.454 1122.4 359.991C1112.77 361.569 1102.52 364.952 1092.99 366.175C1078.77 368.002 1052.22 369.759 1042.82 356.986C1035.14 346.53 1051.51 337.719 1058.71 333.041C1056.05 336.919 1051.3 342.568 1050.78 346.804C1058.75 362.087 1114.5 341.309 1127.23 337.825C1129.49 328.819 1131.65 322.154 1134.67 313.354L1135.46 310.203ZM1179.77 377.974C1183.11 383.758 1184.26 385.4 1189.26 390.028C1195.35 379.801 1204.45 363.755 1194.35 353.027C1187.82 350.5 1184.3 355.187 1181.07 360.526C1179.25 367.582 1178.44 370.741 1179.77 377.974ZM1177.02 361.986L1175.41 361.659C1172.68 365.59 1171.41 374.74 1174.31 378.562C1175.74 376.505 1175.72 376.623 1176.26 374.197C1175.75 368.523 1175.88 367.591 1177.02 361.986Z" fill="black"/>
<path d="M1135.46 310.203C1138.01 301.557 1145.34 262.791 1165.13 286.577C1168.96 291.191 1158.15 313.245 1156.15 320.139L1152.87 320.657C1152.13 314.747 1154.3 310.452 1149.47 305.279C1143.98 299.422 1139.08 306.129 1135.46 310.203Z" fill="black"/>
<path d="M1135.46 310.204C1139.08 306.13 1143.98 299.423 1149.46 305.279C1154.3 310.453 1152.13 314.748 1152.86 320.657C1149.67 326.886 1149.75 321.276 1147.95 327.451L1149.39 330.008L1148.25 331.908C1143.78 331.262 1141.77 332.876 1138.25 331.242C1135.82 327.501 1135.27 318.215 1134.67 313.355L1135.46 310.204Z" fill="black"/>
<path d="M1177.02 361.987L1179.52 359.449L1181.06 360.526C1179.25 367.583 1178.44 370.742 1179.77 377.975C1177.18 377.032 1178 377.331 1176.26 374.198C1175.75 368.523 1175.88 367.594 1177.02 361.987Z" fill="black"/>
<path d="M1176.27 374.197C1175.72 376.623 1175.75 376.505 1174.31 378.562C1171.41 374.74 1172.69 365.59 1175.42 361.656L1177.02 361.986C1175.88 367.591 1175.75 368.523 1176.27 374.197Z" fill="black"/>
<path d="M520.59 419.341C526.61 402.382 539.421 389.995 555.161 381.71C577.494 369.953 603.141 379.852 591.013 407.916C583.388 425.561 566.381 438.048 550.319 447.808C542.786 451.63 542.025 451.406 535.575 457.279C532.918 478.155 531.609 481.681 543.181 498.726C556.263 501.505 568.224 500.081 579.527 493.018C611.651 472.943 604.305 465.788 611.762 435.768C612.588 441.686 603.161 495.531 600.168 499.418C600 499.636 599.818 499.843 599.642 500.055C599.561 495.472 601.108 489.37 602.079 484.747C585.376 505.744 532.02 541.791 512.084 503.83C502 484.63 507.513 453.373 514.176 433.152C516.216 428.255 518.232 424.097 520.59 419.341ZM541.623 444.154C555.03 435.933 564.929 427.503 575.203 415.379C582.299 407.83 593.265 384.466 572.881 387.161C562.537 388.526 554.182 404.553 548.512 412.939C545.86 418.804 537.228 438.572 539.5 444.322L541.623 444.154Z" fill="black"/>
<path d="M520.591 419.341C526.607 402.382 539.421 389.995 555.158 381.71C577.494 369.953 603.142 379.852 591.013 407.916C583.388 425.561 566.381 438.048 550.319 447.808C547.405 446.177 544.73 445.292 541.623 444.154C555.03 435.933 564.926 427.503 575.2 415.379C582.297 407.83 593.265 384.466 572.881 387.161C562.537 388.526 554.182 404.553 548.512 412.939C546.63 413.235 546.943 413.317 545.254 414.483L543.514 412.782C541.388 418.138 537.855 428.048 534.772 432.455L532.977 432.408L531.424 429.887L530.14 430.281L528.297 434.226L526.714 434.542L525.863 433.157L527.785 426.439L526.764 425.645C521.122 429.554 523.813 436.543 517.382 435.969L514.174 433.152C516.216 428.255 518.233 424.097 520.591 419.341Z" fill="black"/>
<path d="M520.591 419.341L521.992 420.23C526.062 418.966 529.544 408.577 533.189 405.812C532.577 406.277 544.49 400.479 543.178 400.823C540.367 405.608 534.361 415.149 534.465 420.219L535.542 420.757C537.214 417.575 538.786 412.81 541.544 411.403L543.514 412.782C541.388 418.138 537.855 428.051 534.772 432.455L532.977 432.41L531.424 429.889L530.14 430.281L528.297 434.229L526.714 434.542L525.863 433.157L527.785 426.442L526.764 425.645C521.122 429.556 523.813 436.543 517.382 435.969L514.174 433.152C516.216 428.255 518.233 424.097 520.591 419.341Z" fill="black"/>
<path d="M1548.27 407.488C1551.87 412.267 1550.38 414.699 1550.7 421.49C1554.89 420.516 1553.31 421.249 1556.82 417.819L1557.88 419.453L1560.35 422.323C1561.11 426.669 1560.57 427.433 1564.6 430.183L1559.85 442.967C1558.45 446.395 1557.09 449.828 1555.74 453.27C1547.61 475.5 1508.98 568.926 1518.73 587.751C1520.04 590.27 1522.02 591.848 1524.74 592.483C1530.92 593.927 1540.29 588.342 1545.18 584.981C1555.02 578.213 1564.58 566.595 1570.5 556.246L1574.02 561.942C1558.52 588.686 1522.39 622.072 1491.77 596.246C1479.07 558.708 1513.84 490.811 1530.12 455.704C1536.39 439.716 1542.45 423.644 1548.27 407.488Z" fill="black"/>
<path d="M1550.69 421.489C1554.89 420.518 1553.31 421.249 1556.81 417.818L1557.88 419.452L1560.35 422.323C1561.11 426.671 1560.56 427.432 1564.59 430.183L1559.84 442.97C1558.45 446.395 1557.09 449.828 1555.74 453.269C1541.5 442.782 1547.57 445.373 1548.41 430.807L1548.97 429.967C1547.96 425.636 1548.27 424.853 1550.69 421.489Z" fill="black"/>
<path d="M1557.88 419.452L1560.36 422.323C1561.11 426.671 1560.57 427.432 1564.59 430.183L1559.84 442.97C1552.81 435.636 1556.9 428.884 1557.88 419.452Z" fill="black"/>
<path d="M1548.27 407.488C1551.87 412.267 1550.37 414.699 1550.69 421.49C1548.27 424.853 1547.96 425.636 1548.97 429.968L1548.41 430.807L1547.9 431.649C1543.11 439.523 1542.13 457.693 1531.44 457.067L1530.12 455.704C1536.39 439.716 1542.45 423.644 1548.27 407.488Z" fill="black"/>
<path d="M1839.84 426.163L1840.74 417.83C1840.93 421.011 1840.46 422.433 1842.11 424.682L1844.44 421.806L1845.22 424.268C1841.61 431.272 1844.58 456.225 1848.3 462.836C1850.77 459.177 1848.95 447.173 1848.32 442.414L1851.12 445.234C1852.39 460.086 1852.83 482.216 1850.89 496.849C1845.4 538.503 1824.69 600.651 1796.05 632.05C1794.32 627.59 1793.95 622.456 1794.71 617.744C1797.01 612.453 1805.73 599.548 1809.92 590.827C1829.5 550.043 1841.84 509.871 1843.42 464.426C1843.8 453.827 1841.24 437.041 1839.84 426.163Z" fill="black"/>
<path d="M1489.82 439.386C1502.81 419.249 1533.41 384.825 1560.23 385.935C1563.42 386.07 1567.38 386.638 1569.59 389.131C1571.82 394.022 1571.71 398.846 1570.6 404.041C1569.45 414.002 1568.68 420.785 1564.59 430.183C1560.56 427.433 1561.11 426.672 1560.35 422.324L1557.88 419.453L1556.81 417.819C1553.31 421.249 1554.89 420.519 1550.69 421.49C1550.37 414.699 1551.87 412.268 1548.27 407.489L1547.42 402.743C1535.63 394.8 1493.77 445.903 1485.3 456.18C1483.19 450.603 1485.12 443.088 1489.82 439.386Z" fill="black"/>
<path d="M1560.36 422.323C1563.98 414.536 1563.72 408.221 1570.6 404.041C1569.45 414.002 1568.69 420.784 1564.6 430.183C1560.57 427.433 1561.11 426.672 1560.36 422.323Z" fill="black"/>
<path d="M1767.59 306.247C1826.03 292.512 1849.51 404.777 1851.12 445.231L1848.32 442.413C1848.48 437.226 1846.99 429.151 1845.22 424.268L1844.44 421.806L1842.11 424.682C1840.46 422.433 1840.93 421.011 1840.74 417.83L1839.84 426.16C1835.25 390.49 1817.85 312.862 1770.2 310.783C1768.14 310.693 1765.14 310.967 1762.98 311.079C1766.74 308.505 1765.94 309.733 1767.59 306.247Z" fill="black"/>
<path d="M569.247 603.93C589.409 604.713 605.748 608.566 621.18 622.811C624.604 627.346 627.655 630.698 626.836 636.588C622.816 644.789 604.173 642.344 595.77 642.372C593.261 634.02 592.875 630.254 585.216 625.447L585.655 622.931C581.376 617.735 576.335 616.138 574.553 613.857L574.925 611.837C571.983 609.8 570.041 608.7 567.865 605.779L569.247 603.93Z" fill="black"/>
<path d="M621.182 622.811C624.603 627.346 627.658 630.698 626.838 636.588C622.819 644.789 604.173 642.344 595.773 642.372C593.263 634.019 592.877 630.253 585.219 625.446L585.658 622.931C594.133 627.033 597.498 626.896 602.813 633.896L604.276 633.907C605.303 632.156 605.238 632.273 605.501 630.25C607.876 629.607 608.268 629.562 610.735 629.358C610.766 627.956 610.889 627.749 610.575 626.409C611.375 625.164 611.764 624.954 612.866 623.893C616.223 623.899 617.898 623.818 621.182 622.811Z" fill="black"/>
<path d="M574.555 613.857C594.865 607.433 595.564 616.453 610.574 626.406C610.89 627.749 610.764 627.956 610.734 629.358C608.267 629.562 607.875 629.607 605.5 630.251C605.237 632.274 605.302 632.153 604.275 633.908L602.812 633.894C597.497 626.896 594.132 627.033 585.657 622.931C581.377 617.735 576.337 616.137 574.555 613.857Z" fill="black"/>
<path d="M730.867 678.321C751.368 668.575 777.586 654.045 800.755 651.885C804.562 651.53 815.642 653.748 817.762 657.296C816.864 658.858 816.293 659.745 814.224 659.898C783.412 662.196 756.677 679.107 728.397 692.031C726.103 687.716 726.377 681.099 730.867 678.321Z" fill="black"/>
<path d="M867.885 849.367C888.676 840.68 895.222 833.242 912.016 818.824C912.914 821.857 913.294 823.122 913.624 826.256C903.196 841.049 880.433 859.519 861.982 860.901C865.11 856.43 864.394 852.317 867.885 849.367Z" fill="black"/>
<path d="M1566.95 765.029C1571.73 765.29 1578.57 764.128 1581.2 767.883C1574.93 769.114 1563.69 769.559 1556.79 770.164C1530.98 772.425 1513.63 773.236 1488.21 779.193C1484.66 774.738 1485.02 775.488 1479.81 774.585C1493.23 773.155 1506.15 769.621 1518.35 768.39C1534.05 766.809 1550.95 766.462 1566.95 765.029Z" fill="black"/>
<path d="M1425.38 338.582C1443.98 337.535 1446.2 351.595 1430.1 361.408C1412.68 363.252 1412.24 346.813 1425.38 338.582Z" fill="black"/>
<path d="M1428.37 791.543C1438.5 786.084 1468.68 777.726 1479.81 774.584C1485.03 775.488 1484.67 774.738 1488.22 779.192C1473.43 784.363 1446.68 793.163 1431.8 796.532C1430.43 795.278 1429.38 793.208 1428.37 791.543Z" fill="black"/>
<path d="M811.855 675.324C817.964 676.46 820.652 676.673 823.284 682.809C823.857 690.394 818.918 692.451 812.641 694.175C806.697 693.724 803.955 694.18 800.957 688.475C800.008 680.489 805.622 677.806 811.855 675.324Z" fill="black"/>
<path d="M1570.5 556.245C1573.36 550.61 1579.7 534.493 1583.84 532.898C1586.1 540.587 1577.62 555.299 1574.02 561.945L1570.5 556.245Z" fill="black"/>
<path d="M722.1 403.154L726.089 407.687C728.234 407.399 730.383 405.661 732.402 404.481C732.85 411.797 732.984 414.019 731.532 421.227C728.349 414.962 722.478 419.467 717.949 416.235L717.82 413.904L719.913 412.662C722.682 411.112 721.957 406.213 722.1 403.154Z" fill="black"/>
<path d="M1848.32 442.413C1848.95 447.172 1850.78 459.176 1848.3 462.833C1844.58 456.224 1841.61 431.268 1845.22 424.268C1846.99 429.15 1848.48 437.225 1848.32 442.413Z" fill="black"/>
<path d="M1728.84 332.037C1730.33 329.398 1732.6 325.402 1734.51 323.147C1742.88 313.368 1754.77 307.291 1767.59 306.247C1765.94 309.733 1766.74 308.505 1762.98 311.079C1746.34 314.753 1741.14 320.716 1728.84 332.037Z" fill="black"/>
<path d="M1203.46 391.635C1209.25 388.557 1224.26 386.856 1231.08 385.888L1231.45 387.955C1229.67 390.048 1229.43 390.275 1226.9 391.347L1203.61 395.25C1204.11 393.406 1204.01 393.496 1203.46 391.635Z" fill="black"/>
<path d="M723.567 397.938C726.731 397.144 726.963 396.047 729.573 393.434C730.468 396.833 731.732 401.12 732.404 404.48C730.387 405.661 728.236 407.399 726.09 407.687L722.102 403.154C722.303 401.237 722.946 399.788 723.567 397.938Z" fill="black"/>
<path d="M719.914 412.661C719.363 405.574 720.308 400.221 721.93 393.347L723.097 394.024L723.567 397.938C722.946 399.788 722.302 401.237 722.101 403.154C721.961 406.212 722.686 411.111 719.914 412.661Z" fill="black"/>
<path d="M1081.5 734.981L1087.79 722.502L1091.62 724.97L1081.5 734.981Z" fill="black"/>
<mask id="path-109-inside-1_248_16785" fill="white">
<path d="M143.223 852.822C171.485 878.374 203.063 905.017 235.167 926.352C478.68 1088.2 795.835 1139.98 1083.48 1127.48C1100.16 1126.76 1121.18 1124.23 1136.67 1123.92L1138.99 1126.1C1146.98 1125.74 1155.56 1125.09 1163.45 1125.88C1156.08 1126.32 1149.55 1126.42 1142.4 1128.47L1142.1 1129.73C1102.43 1134.56 1038.48 1135.65 998.095 1135.59C745.141 1135.19 472.173 1082.78 255.451 947.049C223.221 926.864 175.52 892.56 148.659 865.741C150.27 866.13 152.522 867.375 154.091 868.161L154.956 867.817C154.537 864.199 144.035 859.924 143.223 852.822Z"/>
</mask>
<path d="M143.223 852.822C171.485 878.374 203.063 905.017 235.167 926.352C478.68 1088.2 795.835 1139.98 1083.48 1127.48C1100.16 1126.76 1121.18 1124.23 1136.67 1123.92L1138.99 1126.1C1146.98 1125.74 1155.56 1125.09 1163.45 1125.88C1156.08 1126.32 1149.55 1126.42 1142.4 1128.47L1142.1 1129.73C1102.43 1134.56 1038.48 1135.65 998.095 1135.59C745.141 1135.19 472.173 1082.78 255.451 947.049C223.221 926.864 175.52 892.56 148.659 865.741C150.27 866.13 152.522 867.375 154.091 868.161L154.956 867.817C154.537 864.199 144.035 859.924 143.223 852.822Z" fill="black"/>
<path d="M143.223 852.822L183.461 808.315L65.5531 701.716L83.6111 859.639L143.223 852.822ZM235.167 926.352L268.379 876.382L268.376 876.38L235.167 926.352ZM1083.48 1127.48L1086.08 1187.43L1086.08 1187.43L1083.48 1127.48ZM1136.67 1123.92L1177.79 1080.23L1159.96 1063.44L1135.47 1063.93L1136.67 1123.92ZM1138.99 1126.1L1097.87 1169.79L1116.35 1187.18L1141.7 1186.04L1138.99 1126.1ZM1163.45 1125.88L1167.09 1185.77L1169.4 1066.17L1163.45 1125.88ZM1142.4 1128.47L1125.86 1070.79L1092.02 1080.5L1083.98 1114.77L1142.4 1128.47ZM1142.1 1129.73L1149.34 1189.3L1190.95 1184.24L1200.52 1143.43L1142.1 1129.73ZM998.095 1135.59L998.191 1075.59H998.189L998.095 1135.59ZM255.451 947.049L287.299 896.198L287.298 896.198L255.451 947.049ZM148.659 865.741L162.74 807.417L-44.8778 757.291L106.265 908.2L148.659 865.741ZM154.091 868.161L127.218 921.806L151.273 933.857L176.272 923.91L154.091 868.161ZM154.956 867.817L177.137 923.566L219.853 906.571L214.557 860.905L154.956 867.817ZM143.223 852.822L102.984 897.329C132.057 923.613 166.193 952.556 201.959 976.324L235.167 926.352L268.376 876.38C239.932 857.477 210.913 833.135 183.461 808.315L143.223 852.822ZM235.167 926.352L201.955 976.321C459.744 1147.66 791.043 1200.24 1086.08 1187.43L1083.48 1127.48L1080.87 1067.54C800.627 1079.71 497.615 1028.74 268.379 876.382L235.167 926.352ZM1083.48 1127.48L1086.08 1187.43C1095.87 1187 1106.72 1186.06 1115.43 1185.35C1124.97 1184.56 1132.28 1184.02 1137.87 1183.91L1136.67 1123.92L1135.47 1063.93C1125.57 1064.13 1114.62 1065.01 1105.61 1065.75C1095.77 1066.55 1087.77 1067.24 1080.87 1067.54L1083.48 1127.48ZM1136.67 1123.92L1095.55 1167.61L1097.87 1169.79L1138.99 1126.1L1180.11 1082.41L1177.79 1080.23L1136.67 1123.92ZM1138.99 1126.1L1141.7 1186.04C1152.67 1185.54 1155.18 1185.35 1157.5 1185.58L1163.45 1125.88L1169.4 1066.17C1155.95 1064.83 1141.28 1065.94 1136.28 1066.16L1138.99 1126.1ZM1163.45 1125.88L1159.81 1065.99C1155.86 1066.23 1140.98 1066.46 1125.86 1070.79L1142.4 1128.47L1158.94 1186.15C1157.98 1186.42 1157.6 1186.39 1158.66 1186.29C1159.28 1186.23 1160.14 1186.16 1161.59 1186.08C1162.33 1186.03 1163.08 1185.99 1164.02 1185.94C1164.92 1185.89 1165.98 1185.83 1167.09 1185.77L1163.45 1125.88ZM1142.4 1128.47L1083.98 1114.77L1083.69 1116.04L1142.1 1129.73L1200.52 1143.43L1200.81 1142.17L1142.4 1128.47ZM1142.1 1129.73L1134.86 1070.17C1099.27 1074.5 1038.68 1075.65 998.191 1075.59L998.095 1135.59L997.999 1195.59C1038.28 1195.65 1105.6 1194.61 1149.34 1189.3L1142.1 1129.73ZM998.095 1135.59L998.189 1075.59C752.178 1075.2 491.424 1024.04 287.299 896.198L255.451 947.049L223.604 997.899C452.923 1141.52 738.104 1195.18 998.002 1195.59L998.095 1135.59ZM255.451 947.049L287.298 896.198C256.6 876.973 213.257 845.451 191.053 823.282L148.659 865.741L106.265 908.2C137.783 939.668 189.842 976.755 223.604 997.899L255.451 947.049ZM148.659 865.741L134.578 924.065C131.272 923.267 128.862 922.35 127.804 921.929C126.608 921.454 125.795 921.069 125.558 920.956C125.297 920.832 125.204 920.781 125.519 920.941C125.534 920.949 126.559 921.476 127.218 921.806L154.091 868.161L180.965 814.516C181.012 814.539 180.995 814.531 180.819 814.441C180.742 814.402 180.342 814.197 180.095 814.07C179.496 813.764 178.445 813.23 177.223 812.648C176.025 812.076 174.249 811.258 172.13 810.416C170.147 809.628 166.852 808.409 162.74 807.417L148.659 865.741ZM154.091 868.161L176.272 923.91L177.137 923.566L154.956 867.817L132.775 812.068L131.91 812.412L154.091 868.161ZM154.956 867.817L214.557 860.905C212.959 847.131 207.178 837.322 203.761 832.367C200.212 827.22 196.597 823.581 194.751 821.797C192.756 819.87 190.913 818.302 190.108 817.618C188.777 816.488 188.964 816.659 188.532 816.284C187.914 815.749 190.357 817.722 193.129 821.373C196.069 825.246 201.42 833.641 202.834 846.006L143.223 852.822L83.6111 859.639C85.431 875.554 92.3994 887.146 97.55 893.931C102.533 900.495 107.779 905.094 109.941 906.968C110.578 907.52 111.153 908.007 111.56 908.351C112.08 908.79 112.185 908.876 112.439 909.092C112.934 909.512 112.307 909.002 111.369 908.096C110.579 907.333 107.859 904.677 104.968 900.484C102.209 896.482 96.8481 887.598 95.3556 874.729L154.956 867.817Z" fill="black" mask="url(#path-109-inside-1_248_16785)"/>
<mask id="path-111-inside-2_248_16785" fill="white">
<path d="M363.838 128.729C367.455 128.848 373.066 128.5 375.72 130.491C232.599 196.002 84.6422 300.646 27.1858 453.161C-22.2561 584.405 20.6529 718.033 110.728 818.628C116.424 824.991 140.57 848.125 143.225 852.823C144.037 859.924 154.538 864.2 154.958 867.817L154.093 868.162C152.524 867.375 150.272 866.13 148.661 865.741C146.18 864.11 133.196 851.329 130.476 848.645C93.2173 811.921 60.5603 768.762 37.0926 722.099C-3.44795 641.493 -12.2797 544.754 18.1717 458.98C75.0414 298.788 218.838 200.1 363.838 128.729Z"/>
</mask>
<path d="M363.838 128.729C367.455 128.848 373.066 128.5 375.72 130.491C232.599 196.002 84.6422 300.646 27.1858 453.161C-22.2561 584.405 20.6529 718.033 110.728 818.628C116.424 824.991 140.57 848.125 143.225 852.823C144.037 859.924 154.538 864.2 154.958 867.817L154.093 868.162C152.524 867.375 150.272 866.13 148.661 865.741C146.18 864.11 133.196 851.329 130.476 848.645C93.2173 811.921 60.5603 768.762 37.0926 722.099C-3.44795 641.493 -12.2797 544.754 18.1717 458.98C75.0414 298.788 218.838 200.1 363.838 128.729Z" fill="black"/>
<path d="M363.838 128.729L365.814 68.7611L350.81 68.2666L337.341 74.8963L363.838 128.729ZM375.72 130.491L400.692 185.048L492.453 143.046L411.722 82.4927L375.72 130.491ZM27.1858 453.161L-28.962 432.008L-28.9622 432.009L27.1858 453.161ZM110.728 818.628L155.433 778.61L155.427 778.603L110.728 818.628ZM143.225 852.823L202.837 846.009L201.454 833.909L195.462 823.306L143.225 852.823ZM154.958 867.817L177.133 923.569L219.859 906.575L214.558 860.901L154.958 867.817ZM154.093 868.161L127.22 921.807L151.272 933.856L176.268 923.913L154.093 868.161ZM148.661 865.741L115.702 915.878L124.428 921.615L134.58 924.065L148.661 865.741ZM130.476 848.645L172.611 805.93L172.603 805.922L172.595 805.914L130.476 848.645ZM37.0926 722.099L90.6954 695.141L90.6948 695.14L37.0926 722.099ZM18.1717 458.98L74.7141 479.054L74.7143 479.054L18.1717 458.98ZM363.838 128.729L361.861 188.696C362.979 188.733 363.986 188.746 364.589 188.753C365.452 188.763 365.519 188.761 365.994 188.768C366.706 188.778 366.236 188.788 365.302 188.713C364.486 188.647 361.774 188.406 358.111 187.451C354.726 186.568 347.479 184.311 339.718 178.49L375.72 130.491L411.722 82.4927C402.634 75.6763 393.69 72.7158 388.393 71.3344C382.819 69.8806 377.981 69.3462 374.978 69.1033C371.857 68.8508 369.141 68.8008 367.699 68.7803C367.099 68.7718 366.113 68.7624 365.967 68.7608C365.561 68.7561 365.6 68.754 365.814 68.7611L363.838 128.729ZM375.72 130.491L350.748 75.9349C202.951 143.586 36.9576 257.028 -28.962 432.008L27.1858 453.161L83.3336 474.313C132.327 344.263 262.247 248.418 400.692 185.048L375.72 130.491ZM27.1858 453.161L-28.9622 432.009C-88.2625 589.422 -34.8245 746.021 66.029 858.653L110.728 818.628L155.427 778.603C76.1302 690.045 43.7502 579.388 83.3338 474.312L27.1858 453.161ZM110.728 818.628L66.0231 858.646C68.6527 861.584 72.3746 865.358 75.2 868.211C78.8743 871.922 81.6486 874.687 85.4361 878.52C88.9094 882.035 91.8272 885.035 93.9083 887.271C94.3999 887.799 94.7847 888.22 95.0739 888.543C95.3731 888.876 95.4947 889.02 95.4809 889.003C95.4686 888.989 95.3898 888.895 95.2584 888.733C95.1315 888.575 94.9044 888.29 94.607 887.896C94.2624 887.44 92.7123 885.392 90.9874 882.34L143.225 852.823L195.462 823.306C192.067 817.297 188.04 812.618 187.119 811.528C185.318 809.398 183.413 807.303 181.748 805.514C178.377 801.893 174.405 797.83 170.798 794.179C167.505 790.846 163.009 786.341 160.471 783.778C158.973 782.266 157.739 781.01 156.764 780.003C155.682 778.885 155.341 778.507 155.433 778.61L110.728 818.628ZM143.225 852.823L83.6131 859.637C85.4324 875.553 92.4007 887.146 97.5515 893.931C102.535 900.495 107.781 905.094 109.943 906.968C110.58 907.52 111.156 908.008 111.563 908.351C112.082 908.79 112.187 908.877 112.441 909.093C112.936 909.513 112.31 909.003 111.372 908.097C110.582 907.334 107.862 904.678 104.972 900.486C102.213 896.485 96.8517 887.602 95.3583 874.734L154.958 867.817L214.558 860.901C212.96 847.128 207.179 837.32 203.762 832.365C200.213 827.219 196.598 823.58 194.752 821.797C192.758 819.87 190.915 818.302 190.11 817.618C188.779 816.489 188.966 816.659 188.534 816.285C187.917 815.75 190.359 817.722 193.132 821.375C196.072 825.248 201.423 833.643 202.837 846.009L143.225 852.823ZM154.958 867.817L132.783 812.066L131.918 812.41L154.093 868.161L176.268 923.913L177.133 923.569L154.958 867.817ZM154.093 868.161L180.967 814.516C181.014 814.54 180.998 814.532 180.822 814.442C180.745 814.403 180.345 814.197 180.098 814.071C179.499 813.766 178.448 813.232 177.227 812.649C176.029 812.077 174.253 811.259 172.133 810.417C170.15 809.628 166.854 808.41 162.743 807.417L148.661 865.741L134.58 924.065C131.274 923.267 128.864 922.35 127.805 921.929C126.609 921.454 125.796 921.069 125.559 920.956C125.297 920.831 125.204 920.78 125.519 920.941C125.535 920.949 126.56 921.476 127.22 921.807L154.093 868.161ZM148.661 865.741L181.621 815.605C183.607 816.911 184.988 818.004 185.34 818.283C185.87 818.703 186.202 818.986 186.258 819.034C186.366 819.126 186.185 818.974 185.623 818.461C184.535 817.466 182.992 816.013 181.177 814.273C177.605 810.849 173.93 807.231 172.611 805.93L130.476 848.645L88.3406 891.361C89.742 892.743 93.919 896.857 98.1388 900.902C100.22 902.898 102.559 905.113 104.687 907.057C105.107 907.441 110.23 912.281 115.702 915.878L148.661 865.741ZM130.476 848.645L172.595 805.914C139.434 773.229 110.885 735.285 90.6954 695.141L37.0926 722.099L-16.5103 749.057C10.2356 802.238 47.0005 850.614 88.3569 891.377L130.476 848.645ZM37.0926 722.099L90.6948 695.14C56.9299 628.006 50.1539 548.234 74.7141 479.054L18.1717 458.98L-38.3707 438.907C-74.7133 541.274 -63.8258 654.981 -16.5097 749.058L37.0926 722.099ZM18.1717 458.98L74.7143 479.054C123.325 342.125 248.327 252.459 390.335 182.561L363.838 128.729L337.341 74.8963C189.349 147.74 26.7577 255.45 -38.371 438.907L18.1717 458.98Z" fill="black" mask="url(#path-111-inside-2_248_16785)"/>
<mask id="path-113-inside-3_248_16785" fill="white">
<path d="M1848.04 267.934C1929.62 343.54 1991.36 436.054 1997.12 550.692C2002.79 663.52 1953.23 758.994 1877.12 838.908C1817.64 901.349 1747.7 946.918 1672.18 987.557C1670.53 985.808 1669.38 984.44 1667.88 982.554C1744.1 940.138 1804.19 904.813 1865.96 841.452C2045.17 657.652 2027.19 449.823 1848.04 276.78V267.934Z"/>
</mask>
<path d="M1848.04 267.934C1929.62 343.54 1991.36 436.054 1997.12 550.692C2002.79 663.52 1953.23 758.994 1877.12 838.908C1817.64 901.349 1747.7 946.918 1672.18 987.557C1670.53 985.808 1669.38 984.44 1667.88 982.554C1744.1 940.138 1804.19 904.813 1865.96 841.452C2045.17 657.652 2027.19 449.823 1848.04 276.78V267.934Z" fill="black"/>
<path d="M1848.04 267.934L1888.83 223.928L1788.04 130.516V267.934H1848.04ZM1997.12 550.692L1937.19 553.702L1937.19 553.705L1997.12 550.692ZM1877.12 838.909L1920.56 880.29L1920.56 880.289L1877.12 838.909ZM1672.18 987.557L1628.51 1028.7L1660.08 1062.21L1700.61 1040.39L1672.18 987.557ZM1667.88 982.554L1638.7 930.125L1576.95 964.49L1620.88 1019.85L1667.88 982.554ZM1865.96 841.452L1823 799.565L1823 799.568L1865.96 841.452ZM1848.04 276.78H1788.04V302.244L1806.36 319.935L1848.04 276.78ZM1848.04 267.934L1807.26 311.939C1882.54 381.71 1932.51 460.575 1937.19 553.702L1997.12 550.692L2057.04 547.681C2050.2 411.532 1976.7 305.37 1888.83 223.928L1848.04 267.934ZM1997.12 550.692L1937.19 553.705C1941.79 645.198 1902.34 725.43 1833.67 797.528L1877.12 838.909L1920.56 880.289C2004.12 792.558 2063.79 681.841 2057.04 547.679L1997.12 550.692ZM1877.12 838.909L1833.67 797.527C1780.37 853.482 1716.6 895.518 1643.75 934.721L1672.18 987.557L1700.61 1040.39C1778.8 998.318 1854.91 949.217 1920.56 880.29L1877.12 838.909ZM1672.18 987.557L1715.85 946.413C1715.61 946.152 1715.54 946.074 1715.53 946.063C1715.5 946.022 1715.34 945.833 1714.88 945.258L1667.88 982.554L1620.88 1019.85C1623.19 1022.76 1625.46 1025.46 1628.51 1028.7L1672.18 987.557ZM1667.88 982.554L1697.05 1034.98C1773.89 992.225 1840.63 953.39 1908.92 883.336L1865.96 841.452L1823 799.568C1767.75 856.237 1714.31 888.052 1638.7 930.125L1667.88 982.554ZM1865.96 841.452L1908.92 883.338C2007.31 782.428 2056.75 669.098 2051.32 552.297C2045.93 436.299 1986.91 327.501 1889.73 233.625L1848.04 276.78L1806.36 319.935C1888.32 399.102 1927.86 480.739 1931.45 557.867C1935 634.192 1903.82 716.676 1823 799.565L1865.96 841.452ZM1848.04 276.78H1908.04V267.934H1848.04H1788.04V276.78H1848.04Z" fill="black" mask="url(#path-113-inside-3_248_16785)"/>
<mask id="path-115-inside-4_248_16785" fill="white">
<path d="M1076.51 1.64755C1085.49 1.03758 1103.61 2.61388 1113.12 3.23511C1142.7 5.19667 1172.23 7.90335 1201.68 11.3527C1422.09 36.4492 1669.97 112.532 1839.51 260.411L1848.04 267.933V276.78C1678.04 124.291 1449.9 51.1828 1226.99 20.9993C1192.54 16.4585 1157.96 12.8612 1123.31 10.2112C1106.95 8.97922 1090.28 9.11881 1073.95 7.29019L1069.82 4.64789C1072.79 3.93966 1073.07 3.67678 1075.77 2.09262L1076.51 1.64755Z"/>
</mask>
<path d="M1076.51 1.64755C1085.49 1.03758 1103.61 2.61388 1113.12 3.23511C1142.7 5.19667 1172.23 7.90335 1201.68 11.3527C1422.09 36.4492 1669.97 112.532 1839.51 260.411L1848.04 267.933V276.78C1678.04 124.291 1449.9 51.1828 1226.99 20.9993C1192.54 16.4585 1157.96 12.8612 1123.31 10.2112C1106.95 8.97922 1090.28 9.11881 1073.95 7.29019L1069.82 4.64789C1072.79 3.93966 1073.07 3.67678 1075.77 2.09262L1076.51 1.64755Z" fill="black"/>
<path d="M1076.51 1.64755L1072.45 -58.2145L1058.08 -57.2381L1045.71 -49.843L1076.51 1.64755ZM1113.12 3.23511L1117.09 -56.6334L1117.06 -56.6354L1117.03 -56.6373L1113.12 3.23511ZM1201.68 11.3527L1194.7 70.9452L1194.8 70.9565L1194.89 70.9675L1201.68 11.3527ZM1839.51 260.411L1879.18 215.4L1879.07 215.297L1878.95 215.195L1839.51 260.411ZM1848.04 267.933H1908.04V240.838L1887.72 222.922L1848.04 267.933ZM1848.04 276.78L1807.98 321.445L1908.04 411.196V276.78H1848.04ZM1226.99 20.9993L1235.04 -38.4582L1234.94 -38.4723L1234.83 -38.4862L1226.99 20.9993ZM1123.31 10.2112L1127.89 -49.6141L1127.85 -49.6169L1127.82 -49.6195L1123.31 10.2112ZM1073.95 7.29019L1041.64 57.8466L1053.41 65.3641L1067.28 66.9175L1073.95 7.29019ZM1069.82 4.64789L1055.88 -53.7104L918.456 -20.8847L1037.51 55.2043L1069.82 4.64789ZM1075.77 2.09262L1106.14 53.8394L1106.36 53.7122L1106.57 53.5832L1075.77 2.09262ZM1076.51 1.64755L1080.58 61.5096C1080.17 61.5374 1080.91 61.4797 1083.3 61.535C1085.46 61.5847 1088.11 61.7033 1091.16 61.8796C1098.04 62.2778 1102.9 62.6956 1109.21 63.1075L1113.12 3.23511L1117.03 -56.6373C1111.68 -56.9869 1086.71 -59.1834 1072.45 -58.2145L1076.51 1.64755ZM1113.12 3.23511L1109.15 63.1036C1137.73 64.9985 1166.26 67.6132 1194.7 70.9452L1201.68 11.3527L1208.66 -48.2398C1178.21 -51.8065 1147.68 -54.6052 1117.09 -56.6334L1113.12 3.23511ZM1201.68 11.3527L1194.89 70.9675C1409.03 95.35 1643.3 168.886 1800.07 305.627L1839.51 260.411L1878.95 215.195C1696.64 56.1765 1435.14 -22.4516 1208.47 -48.2621L1201.68 11.3527ZM1839.51 260.411L1799.84 305.422L1808.37 312.945L1848.04 267.933L1887.72 222.922L1879.18 215.4L1839.51 260.411ZM1848.04 267.933H1788.04V276.78H1848.04H1908.04V267.933H1848.04ZM1848.04 276.78L1888.11 232.114C1705.61 68.4267 1464.07 -7.446 1235.04 -38.4582L1226.99 20.9993L1218.94 80.4567C1435.73 109.812 1650.46 180.155 1807.98 321.445L1848.04 276.78ZM1226.99 20.9993L1234.83 -38.4862C1199.3 -43.1701 1163.63 -46.8807 1127.89 -49.6141L1123.31 10.2112L1118.74 70.0365C1152.3 72.6031 1185.79 76.0872 1219.15 80.4847L1226.99 20.9993ZM1123.31 10.2112L1127.82 -49.6195C1118.35 -50.3322 1108.63 -50.6569 1101.15 -50.9724C1093.06 -51.3132 1086.58 -51.6709 1080.63 -52.3371L1073.95 7.29019L1067.28 66.9175C1077.66 68.0799 1087.68 68.5667 1096.09 68.9212C1105.11 69.3011 1111.91 69.5226 1118.81 70.0418L1123.31 10.2112ZM1073.95 7.29019L1106.27 -43.2663L1102.13 -45.9086L1069.82 4.64789L1037.51 55.2043L1041.64 57.8466L1073.95 7.29019ZM1069.82 4.64789L1083.76 63.0062C1086.03 62.4647 1091.41 61.1722 1097.61 58.3733C1100.44 57.093 1102.66 55.8582 1103.87 55.1644C1104.72 54.6791 1106.11 53.8546 1106.14 53.8394L1075.77 2.09262L1045.4 -49.6541C1045.02 -49.4315 1044.53 -49.1415 1044.41 -49.0692C1044.17 -48.9309 1044.22 -48.9601 1044.37 -49.0432C1044.68 -49.2201 1046.13 -50.0478 1048.18 -50.9759C1052.82 -53.0702 1056.58 -53.8772 1055.88 -53.7104L1069.82 4.64789ZM1075.77 2.09262L1106.57 53.5832L1107.32 53.1381L1076.51 1.64755L1045.71 -49.843L1044.97 -49.398L1075.77 2.09262Z" fill="black" mask="url(#path-115-inside-4_248_16785)"/>
<mask id="path-117-inside-5_248_16785" fill="white">
<path d="M363.836 128.728C374.317 125.221 399.456 113.229 411.511 108.279C444.012 94.8193 477.056 82.7176 510.56 72.0048C664.25 24.2433 824.289 0.0487886 985.229 0.245773C1010.25 0.116681 1053.18 -0.712695 1076.52 1.64803L1075.77 2.09311C1073.08 3.67725 1072.79 3.94013 1069.82 4.64837L1073.96 7.29066C835.081 -0.930608 595.036 31.4946 375.718 130.491C373.064 128.5 367.456 128.847 363.836 128.728Z"/>
</mask>
<path d="M363.836 128.728C374.317 125.221 399.456 113.229 411.511 108.279C444.012 94.8193 477.056 82.7176 510.56 72.0048C664.25 24.2433 824.289 0.0487886 985.229 0.245773C1010.25 0.116681 1053.18 -0.712695 1076.52 1.64803L1075.77 2.09311C1073.08 3.67725 1072.79 3.94013 1069.82 4.64837L1073.96 7.29066C835.081 -0.930608 595.036 31.4946 375.718 130.491C373.064 128.5 367.456 128.847 363.836 128.728Z" fill="black"/>
<path d="M363.836 128.728L344.796 71.8296L361.866 188.696L363.836 128.728ZM411.511 108.279L434.302 163.782L434.385 163.748L434.468 163.713L411.511 108.279ZM510.56 72.0048L492.754 14.7078L492.521 14.7804L492.287 14.855L510.56 72.0048ZM985.229 0.245773L985.156 60.2457L985.347 60.246L985.538 60.245L985.229 0.245773ZM1076.52 1.64803L1107.4 53.0886L1262.23 -39.8697L1082.56 -58.0472L1076.52 1.64803ZM1075.77 2.09311L1106.14 53.8399L1106.4 53.6881L1106.66 53.5337L1075.77 2.09311ZM1069.82 4.64837L1055.88 -53.7099L918.458 -20.8842L1037.51 55.2048L1069.82 4.64837ZM1073.96 7.29066L1071.89 67.2552L1290.99 74.7958L1106.27 -43.2658L1073.96 7.29066ZM375.718 130.491L339.717 178.49L368.083 199.767L400.403 185.178L375.718 130.491ZM363.836 128.728L382.876 185.627C391.451 182.758 403.291 177.509 411.502 173.851C421.592 169.355 429.365 165.809 434.302 163.782L411.511 108.279L388.721 52.7755C381.602 55.6988 370.778 60.6235 362.665 64.2383C358.203 66.2262 354.145 68.0104 350.698 69.4643C348.987 70.1856 347.58 70.7608 346.463 71.1993C345.282 71.6634 344.779 71.8352 344.796 71.8296L363.836 128.728ZM411.511 108.279L434.468 163.713C465.433 150.89 496.914 139.36 528.833 129.155L510.56 72.0048L492.287 14.855C457.197 26.0747 422.591 38.7488 388.555 52.8442L411.511 108.279ZM510.56 72.0048L528.366 129.302C676.267 83.3393 830.278 60.0562 985.156 60.2457L985.229 0.245773L985.302 -59.7542C818.3 -59.9586 652.233 -34.8527 492.754 14.7078L510.56 72.0048ZM985.229 0.245773L985.538 60.245C1013.36 60.1014 1051.3 59.4029 1070.48 61.3433L1076.52 1.64803L1082.56 -58.0472C1055.07 -60.8283 1007.14 -59.8681 984.919 -59.7534L985.229 0.245773ZM1076.52 1.64803L1045.63 -49.7925L1044.89 -49.3475L1075.77 2.09311L1106.66 53.5337L1107.4 53.0886L1076.52 1.64803ZM1075.77 2.09311L1045.41 -49.6537C1045.04 -49.4363 1044.53 -49.1395 1044.42 -49.0725C1044.19 -48.9357 1044.24 -48.9657 1044.38 -49.05C1044.7 -49.2297 1046.15 -50.0566 1048.2 -50.9836C1052.83 -53.0727 1056.59 -53.878 1055.88 -53.7099L1069.82 4.64837L1083.76 63.0066C1086.02 62.4665 1091.41 61.1756 1097.59 58.382C1100.42 57.1027 1102.64 55.8688 1103.86 55.1722C1104.72 54.6808 1106.11 53.8614 1106.14 53.8399L1075.77 2.09311ZM1069.82 4.64837L1037.51 55.2048L1041.64 57.8471L1073.96 7.29066L1106.27 -43.2658L1102.13 -45.9081L1069.82 4.64837ZM1073.96 7.29066L1076.02 -52.6738C830.603 -61.1203 580.874 -27.9422 351.034 75.8042L375.718 130.491L400.403 185.178C609.198 90.9314 839.559 59.259 1071.89 67.2552L1073.96 7.29066ZM375.718 130.491L411.72 82.4926C402.636 75.6787 393.695 72.7177 388.396 71.3354C382.821 69.881 377.983 69.3463 374.979 69.1032C371.857 68.8506 369.14 68.8005 367.698 68.78C367.095 68.7715 366.113 68.7622 365.963 68.7605C365.556 68.7559 365.595 68.7538 365.806 68.7607L363.836 128.728L361.866 188.696C362.982 188.733 363.987 188.746 364.591 188.753C365.451 188.763 365.522 188.761 365.995 188.768C366.705 188.778 366.235 188.788 365.299 188.712C364.482 188.646 361.77 188.405 358.105 187.449C354.718 186.566 347.474 184.308 339.717 178.49L375.718 130.491Z" fill="black" mask="url(#path-117-inside-5_248_16785)"/>
<mask id="path-119-inside-6_248_16785" fill="white">
<path d="M1179.92 1120.3C1191.76 1118.37 1208.13 1116.94 1220.35 1115.4C1244.23 1112.34 1268.04 1108.77 1291.77 1104.7C1422.56 1083.12 1549.36 1041.95 1667.88 982.556C1669.38 984.439 1670.53 985.807 1672.18 987.556C1531.41 1059.64 1348.86 1110.31 1190.66 1125.24C1177.75 1126.6 1154.14 1129.71 1142.1 1129.73L1142.4 1128.47C1149.55 1126.42 1156.08 1126.32 1163.45 1125.88C1155.56 1125.09 1146.98 1125.74 1138.98 1126.1L1136.67 1123.92L1179.92 1120.3Z"/>
</mask>
<path d="M1179.92 1120.3C1191.76 1118.37 1208.13 1116.94 1220.35 1115.4C1244.23 1112.34 1268.04 1108.77 1291.77 1104.7C1422.56 1083.12 1549.36 1041.95 1667.88 982.556C1669.38 984.439 1670.53 985.807 1672.18 987.556C1531.41 1059.64 1348.86 1110.31 1190.66 1125.24C1177.75 1126.6 1154.14 1129.71 1142.1 1129.73L1142.4 1128.47C1149.55 1126.42 1156.08 1126.32 1163.45 1125.88C1155.56 1125.09 1146.98 1125.74 1138.98 1126.1L1136.67 1123.92L1179.92 1120.3Z" fill="black"/>
<path d="M1179.92 1120.3L1184.93 1180.09L1187.27 1179.89L1189.58 1179.52L1179.92 1120.3ZM1220.35 1115.4L1227.86 1174.93L1227.92 1174.92L1227.97 1174.91L1220.35 1115.4ZM1291.77 1104.7L1282 1045.5L1281.81 1045.53L1281.62 1045.56L1291.77 1104.7ZM1667.88 982.556L1714.85 945.226L1684.55 907.09L1641 928.915L1667.88 982.556ZM1672.18 987.556L1699.53 1040.96L1770.63 1004.55L1715.85 946.412L1672.18 987.556ZM1190.66 1125.24L1185.02 1065.5L1184.7 1065.53L1184.37 1065.57L1190.66 1125.24ZM1142.1 1129.73L1083.68 1116.04L1066.37 1189.88L1142.21 1189.73L1142.1 1129.73ZM1142.4 1128.47L1125.86 1070.79L1092.02 1080.5L1083.98 1114.77L1142.4 1128.47ZM1163.45 1125.88L1167.09 1185.77L1169.4 1066.17L1163.45 1125.88ZM1138.98 1126.1L1097.89 1169.82L1116.36 1187.18L1141.69 1186.04L1138.98 1126.1ZM1136.67 1123.92L1131.66 1064.13L997.413 1075.38L1095.58 1167.64L1136.67 1123.92ZM1179.92 1120.3L1189.58 1179.52C1200.46 1177.74 1211.41 1177 1227.86 1174.93L1220.35 1115.4L1212.84 1055.87C1204.84 1056.88 1183.07 1058.99 1170.25 1061.08L1179.92 1120.3ZM1220.35 1115.4L1227.97 1174.91C1252.7 1171.75 1277.35 1168.05 1301.91 1163.84L1291.77 1104.7L1281.62 1045.56C1258.72 1049.49 1235.75 1052.94 1212.73 1055.89L1220.35 1115.4ZM1291.77 1104.7L1301.53 1163.9C1438.28 1141.34 1570.85 1098.3 1694.76 1036.2L1667.88 982.556L1641 928.915C1527.88 985.607 1406.85 1024.9 1282 1045.5L1291.77 1104.7ZM1667.88 982.556L1620.91 1019.89C1623.2 1022.77 1625.46 1025.46 1628.51 1028.7L1672.18 987.556L1715.85 946.412C1715.61 946.151 1715.54 946.069 1715.52 946.053C1715.48 946.004 1715.32 945.808 1714.85 945.226L1667.88 982.556ZM1672.18 987.556L1644.83 934.15C1511.35 1002.5 1336.25 1051.23 1185.02 1065.5L1190.66 1125.24L1196.3 1184.97C1361.47 1169.39 1551.46 1116.78 1699.53 1040.96L1672.18 987.556ZM1190.66 1125.24L1184.37 1065.57C1167.34 1067.36 1149.9 1069.72 1141.99 1069.73L1142.1 1129.73L1142.21 1189.73C1158.38 1189.7 1188.16 1185.83 1196.95 1184.91L1190.66 1125.24ZM1142.1 1129.73L1200.52 1143.43L1200.81 1142.17L1142.4 1128.47L1083.98 1114.77L1083.68 1116.04L1142.1 1129.73ZM1142.4 1128.47L1158.94 1186.15C1157.98 1186.42 1157.6 1186.39 1158.66 1186.29C1159.28 1186.23 1160.14 1186.16 1161.59 1186.08C1162.33 1186.03 1163.07 1185.99 1164.02 1185.94C1164.92 1185.89 1165.98 1185.83 1167.09 1185.77L1163.45 1125.88L1159.8 1065.99C1155.86 1066.23 1140.98 1066.46 1125.86 1070.79L1142.4 1128.47ZM1163.45 1125.88L1169.4 1066.17C1155.95 1064.83 1141.28 1065.94 1136.28 1066.16L1138.98 1126.1L1141.69 1186.04C1152.67 1185.54 1155.18 1185.35 1157.49 1185.58L1163.45 1125.88ZM1138.98 1126.1L1180.08 1082.38L1177.76 1080.2L1136.67 1123.92L1095.58 1167.64L1097.89 1169.82L1138.98 1126.1ZM1136.67 1123.92L1141.68 1183.71L1184.93 1180.09L1179.92 1120.3L1174.91 1060.51L1131.66 1064.13L1136.67 1123.92Z" fill="black" mask="url(#path-119-inside-6_248_16785)"/>
</svg>
